<svg width="54.586" height="30.002" viewBox="0 0 54.586 30.002" fill="none" class="header-module--logo--3bSX-" xmlns="http://www.w3.org/2000/svg"><defs><clipPath clipPathUnits="userSpaceOnUse" id="c"><path fill="#4c77ff" d="M-5.532-5.841h60.348v38.699H-5.532z"/></clipPath><clipPath clipPathUnits="userSpaceOnUse" id="b"><path fill="#4c77ff" d="M-5.532-5.841h60.348v38.699H-5.532z"/></clipPath><clipPath clipPathUnits="userSpaceOnUse" id="a"><path fill="#4c77ff" d="M-5.532-5.841h60.348v38.699H-5.532z"/></clipPath></defs><circle cx="26.731" cy="15" r="9.5" fill="#4081cb" clip-path="url(#a)" transform="translate(-.23)"/><path d="M16.027 3.246V7.53l2.609-1.587a15.583 15.583 0 0116.212 0l.312.19v.002l.07.04V1.98l-.069-.034a19.19 19.19 0 00-18.404.855zm21.421 23.508V22.47l-2.609 1.586a15.582 15.582 0 01-16.212 0l-.313-.19v-.002l-.084-.043v4.196l.084.039a19.191 19.191 0 0018.404-.856l.73-.445z" fill="#4081cb" clip-path="url(#b)" transform="translate(-.23)"/><path d="M16.016 7.532V3.246L.23 12.847v4.307l15.786 9.602V22.47L3.736 15zm21.43 19.224l15.786-9.602v-4.307l-15.786-9.6v4.285L49.726 15l-12.28 7.47v4.285zm46.729-6.206c-.358.09-.806.14-1.354.14-1.095 0-2.02-.11-2.768-.328a9.687 9.687 0 01-1.901-.757l-1.096 3.087c.23.129.518.268.857.418.338.14.736.279 1.214.418.478.14 1.016.249 1.633.338.618.09 1.305.14 2.071.14 2.27 0 3.973-.448 5.098-1.334 1.125-.887 1.693-2.131 1.693-3.744 0-.826-.1-1.533-.319-2.11a4.152 4.152 0 00-.986-1.514c-.438-.438-.985-.817-1.652-1.136a24.117 24.117 0 00-2.34-.985 29.13 29.13 0 01-1.185-.438 5.992 5.992 0 01-.946-.478c-.279-.18-.488-.369-.637-.588a1.44 1.44 0 01-.22-.796c0-.538.2-.926.608-1.185s1.075-.388 2.001-.388c.837 0 1.544.1 2.131.288.588.19 1.125.409 1.603.657L88.795 7.2c-.547-.299-1.254-.558-2.09-.817-.837-.259-1.843-.378-3.007-.378-.976 0-1.862.12-2.64.358a5.907 5.907 0 00-1.99 1.036 4.523 4.523 0 00-1.275 1.633c-.299.637-.448 1.354-.448 2.15 0 .797.14 1.474.418 2.032a4.65 4.65 0 001.096 1.414c.438.398.945.716 1.513.975.567.26 1.125.488 1.693.687 1.294.428 2.21.827 2.738 1.205.527.369.796.837.796 1.404 0 .259-.04.498-.12.717a1.241 1.241 0 01-.447.558c-.21.159-.498.288-.857.378zM64.52 19.137a138.018 138.018 0 002.032 4.51v-.01h3.694a120.951 120.951 0 002.021-4.5 168.69 168.69 0 001.892-4.63 210.708 210.708 0 001.653-4.381c.507-1.384.945-2.629 1.334-3.734h-4.132a136.135 136.135 0 01-1.076 3.236c-.388 1.155-.796 2.3-1.204 3.445-.409 1.145-.807 2.24-1.195 3.286a55.972 55.972 0 01-1.066 2.708 37.937 37.937 0 01-1.075-2.718c-.222-.63-.454-1.276-.693-1.941l-.001-.003c-.158-.44-.319-.887-.48-1.342-.409-1.145-.807-2.29-1.206-3.445-.398-1.155-.756-2.23-1.075-3.226h-4.281c.368 1.095.806 2.34 1.304 3.734a153.73 153.73 0 001.653 4.38 146.744 146.744 0 001.902 4.63zm37.249-12.735h3.883v17.246h-3.883v-7.319h-6.522v7.319h-3.883V6.402h3.883v6.592h6.522zm14.587 11.391a90.942 90.942 0 013.604 5.855h3.266V6.402h-3.863v10.166a181.464 181.464 0 00-1.912-2.798 93.097 93.097 0 00-2.051-2.807 67.257 67.257 0 00-2.031-2.55 28.646 28.646 0 00-1.812-2.01h-3.166v17.245h3.833V12.337a59.7 59.7 0 014.132 5.456z" fill="#444" clip-path="url(#c)" transform="translate(-.23)"/></svg>